# AST/ASF file generated using VICON BodyLanguage
# -----------------------------------------------
:version 1.10
:name VICON
:units
  mass 1.0
  length 0.45
  angle deg
:documentation
   .ast/.asf automatically generated from VICON data using
   VICON BodyBuilder and BodyLanguage model FoxedUp or BRILLIANT.MOD
:root
   order TX TY TZ RX RY RZ
   axis XYZ
   position 0 0 0  
   orientation 0 0 0 
:bonedata
  begin
     id 1 
     name lhipjoint
     direction 0.561001 -0.76473 0.316963 
     length 2.4722 
     axis 0 0 0  XYZ
  end
  begin
     id 2 
     name lfemur
     direction 0.34202 -0.939693 0  
     length 7.59403  
     axis 0 0 20  XYZ
    dof rx ry rz
    limits (-160.0 20.0)
           (-70.0 70.0)
           (-60.0 70.0)
  end
  begin
     id 3 
     name ltibia
     direction 0.34202 -0.939693 0   
     length 7.89655   
     axis 0 0 20   XYZ
    dof rx
    limits (-10.0 170.0)
  end
  begin
     id 4 
     name lfoot
     direction 0.061296 -0.168409 0.98381   
     length 2.73287   
     axis -90 7.62852e-016 20   XYZ
    dof rx rz
    limits (-45.0 90.0)
           (-70.0 20.0)
  end
  begin
     id 5 
     name ltoes
     direction 1.53547e-011 -4.21984e-011 1   
     length 1.37057   
     axis -90 7.62852e-016 20   XYZ
    dof rx
    limits (-90.0 20.0)
  end
  begin
     id 6 
     name rhipjoint
     direction -0.559611 -0.765599 0.317323   
     length 2.46939  
     axis 0 0 0  XYZ 
  end
  begin
     id 7 
     name rfemur
     direction -0.34202 -0.939693 0   
     length 7.53712   
     axis 0 0 -20   XYZ
    dof rx ry rz
    limits (-160.0 20.0)
           (-70.0 70.0)
           (-70.0 60.0)
  end
  begin
     id 8 
     name rtibia
     direction -0.34202 -0.939693 0   
     length 8.12549   
     axis 0 0 -20   XYZ
    dof rx
    limits (-10.0 170.0)
 end
 begin
     id 9 
     name rfoot
     direction -0.066984 -0.184037 0.980634   
     length 2.67541  
     axis -90 -7.62852e-016 -20   XYZ
    dof rx rz
    limits (-45.0 90.0)
           (-20.0 70.0)
  end
  begin
     id 10 
     name rtoes
     direction -1.53549e-011 -4.21786e-011 1   
     length 1.34085   
     axis -90 -7.62852e-016 -20   XYZ
    dof rx
    limits (-90.0 20.0)
  end
  begin
     id 11 
     name lowerback
     direction -0.0522728 0.992594 -0.109658   
     length 2.05633   
     axis 0 0 0   XYZ
    dof rx ry rz
    limits (-20.0 45.0)
           (-30.0 30.0)
           (-30.0 30.0)
  end
  begin
     id 12 
     name upperback
     direction 0.00589338 0.999977 0.00335704   
     length 2.05845   
     axis 0 0 0   XYZ
    dof rx ry rz
    limits (-20.0 45.0)
           (-30.0 30.0)
           (-30.0 30.0)
  end
  begin
     id 13 
     name thorax
     direction 0.0292928 0.998059 0.0549487   
     length 2.09281   
     axis 0 0 0   XYZ
    dof rx ry rz
    limits (-20.0 45.0)
           (-30.0 30.0)
           (-30.0 30.0)
  end
  begin
     id 14 
     name lowerneck
     direction 0.0356368 0.980775 0.191858   
     length 1.84767   
     axis 0 0 0   XYZ
    dof rx ry rz
    limits (-20.0 45.0)
           (-30.0 30.0)
           (-30.0 30.0)
  end
  begin
     id 15 
     name upperneck
     direction -0.0227605 0.98931 -0.14404   
     length 1.89582   
     axis 0 0 0   XYZ
    dof rx ry rz
    limits (-20.0 45.0)
           (-30.0 30.0)
           (-30.0 30.0)
  end
  begin
     id 16
     name head
     direction -0.00932985 0.997511 -0.0698904  
     length 1.90213  
     axis 0 0 0   XYZ
    dof rx ry rz
    limits (-20.0 45.0)
           (-30.0 30.0)
           (-30.0 30.0)
  end
  begin
     id 17 
     name lclavicle
     direction 0.873442 0.479511 0.0846686  
     length 3.41193  
     axis 0 0 0   XYZ
    dof ry rz
    limits (-20.0 10.0)
           (0.0 20.0)
  end
  begin
     id 18 
     name lhumerus
     direction 1 -4.4897e-011 -5.62117e-018   
     length 5.59864   
     axis 180 -30 -90   XYZ
    dof rx ry rz
    limits (-60.0 90.0)
           (-90.0 90.0)
           (-90.0 90.0)
  end
  begin
     id 19
     name lradius
     direction 1 -4.48966e-011 -6.26295e-027   
     length 3.59542   
     axis 180 -30 -90   XYZ
    dof rx
    limits (-10.0 170.0)
  end
  begin
     id 20
     name lwrist
     direction 1 -4.48947e-011 -1.74096e-026   
     length 1.79771   
     axis 1.04567e-014 90 90   XYZ
    dof ry
    limits (-180.0 0.0)
 end
  begin
     id 21 
     name lhand
     direction 1 -4.49085e-011 -3.48469e-026   
     length 0.572014   
     axis 2.22196e-014 90 90   XYZ
    dof rx rz
    limits (-90.0 90.0)
           (-45.0 45.0)
  end
  begin
     id 22 
     name lfingers
     direction 1 -4.48884e-011 -6.96135e-026   
     length 0.461173   
     axis 4.44383e-014 90 90   XYZ
    dof rx
    limits (0.0 90.0)
  end
  begin
     id 23
     name lthumb
     direction 0.707107 -6.34976e-011 0.707107   
     length 0.662154   
     axis -90 45 -5.4397e-014   XYZ
    dof rx rz
    limits (-45.0 45.0)
           (-45.0 45.0)
  end
  begin
     id 24 
     name rclavicle
     direction -0.890242 0.443271 0.104786   
     length 3.46753  
     axis 0 0 0   XYZ 
    dof ry rz
    limits (-10.0 20.0)
           (-20.0 0.0)
  end
  begin
     id 25 
     name rhumerus
     direction -1 -4.48963e-011 -5.41723e-018  
     length 5.8094   
     axis 180 30 90   XYZ
    dof rx ry rz
    limits (-90.0 60.0)
           (-90.0 90.0)
           (-90.0 90.0)
  end
  begin
     id 26 
     name rradius
     direction -1 -4.48958e-011 -6.51059e-027   
     length 3.66953   
     axis 180 30 90   XYZ
    dof rx
    limits (-10.0 170.0)
  end
  begin
     id 27 
     name rwrist
     direction -1 -4.48975e-011 -1.74124e-026   
     length 1.83476   
     axis 1.04567e-014 -90 -90   XYZ
    dof ry
    limits (-180.0 0.0)
  end
  begin
     id 28
     name rhand
     direction -1 -4.49013e-011 -3.48326e-026   
     length 0.57843   
     axis 2.22196e-014 -90 -90   XYZ
    dof rx rz
    limits (-90.0 90.0)
           (-45.0 45.0)
  end
  begin
     id 29
     name rfingers
     direction -1 -4.49023e-011 -6.9669e-026   
     length 0.466345   
     axis 4.44383e-014 -90 -90   XYZ
    dof rx
    limits (0.0 90.0)
  end
  begin
     id 30
     name rthumb
     direction -0.707107 -6.34926e-011 0.707107   
     length 0.669581   
     axis -90 -45 5.4397e-014   XYZ
    dof rx rz
    limits (-45.0 45.0)
           (-45.0 45.0)
  end
:hierarchy
  begin
    root lhipjoint rhipjoint lowerback
    lhipjoint lfemur
    lfemur ltibia
    ltibia lfoot
    lfoot ltoes
    rhipjoint rfemur
    rfemur rtibia
    rtibia rfoot
    rfoot rtoes
    lowerback upperback
    upperback thorax
    thorax lowerneck lclavicle rclavicle
    lowerneck upperneck
    upperneck head
    lclavicle lhumerus
    lhumerus lradius
    lradius lwrist
    lwrist lhand lthumb
    lhand lfingers
    rclavicle rhumerus
    rhumerus rradius
    rradius rwrist
    rwrist rhand rthumb
    rhand rfingers
  end

#!OML:ASF H:\SkateBoarding\Project 1\Capture day 1\Session 1\Skater.ASF
:FULLY-SPECIFIED
:DEGREES
396
root -1.56849 18.4648 24.1255 10.8197 37.7779 3.05878
lowerback 10.6052 -2.66185 -2.65533
upperback -1.20691 -3.93556 -0.637493
thorax -7.09281 -1.8291 1.46673
lowerneck -20.0942 0.804187 1.71887
upperneck 23.6576 2.64054 -7.14774
head 11.1299 0.476161 -2.48837
rclavicle -1.44119e-014 -2.5842e-015
rhumerus -15.1642 9.12591 -84.4697
rradius 40.8295
rwrist -13.8405
rhand -34.6507 -9.48705
rfingers 7.12502
rthumb -7.80764 -39.3229
lclavicle -1.44119e-014 -2.5842e-015
lhumerus 3.75906 -29.7754 91.917
lradius 85.5953
lwrist 19.0164
lhand -27.2857 0.359605
lfingers 7.12502
lthumb -0.696027 30.3382
rfemur -40.4592 -3.02274 19.2844
rtibia 63.0775
rfoot -32.7035 8.29722
rtoes -13.0736
lfemur -9.448 -4.77376 -7.52605
ltibia 68.5687
lfoot -25.3632 -4.66393
ltoes -18.8301
397
root -1.6081 18.5276 24.4527 10.6324 38.8825 3.09131
lowerback 10.5964 -2.74666 -2.68616
upperback -1.21026 -4.05629 -0.696448
thorax -7.0889 -1.88802 1.44086
lowerneck -20.0862 0.571181 1.51065
upperneck 23.901 2.36752 -7.0304
head 11.2008 0.345809 -2.45703
rclavicle 3.14577e-014 1.31198e-014
rhumerus -15.8231 9.30454 -84.4923
rradius 41.7676
rwrist -14.4194
rhand -34.7625 -9.47744
rfingers 7.12502
rthumb -7.91553 -39.3092
lclavicle 3.14577e-014 1.31198e-014
lhumerus 2.9481 -30.3435 92.6967
lradius 85.1497
lwrist 19.0503
lhand -26.9152 0.366985
lfingers 7.12502
lthumb -0.338181 30.3465
rfemur -39.3888 -3.28903 19.5383
rtibia 62.1299
rfoot -33.143 7.6417
rtoes -13.1495
lfemur -10.8427 -3.77168 -8.00808
ltibia 69.4192
lfoot -26.8516 -4.50707
ltoes -19.0871
398
root -1.64717 18.5862 24.7815 10.372 39.9734 3.03879
lowerback 10.586 -2.82125 -2.69807
upperback -1.20808 -4.15857 -0.723786
thorax -7.07796 -1.93826 1.43438
lowerneck -20.0688 0.344556 1.31017
upperneck 24.1598 2.10953 -6.94017
head 11.2782 0.21974 -2.43507
rclavicle 6.96243e-014 1.51076e-014
rhumerus -16.5099 9.4937 -84.5063
rradius 42.6713
rwrist -14.9943
rhand -34.8642 -9.4697
rfingers 7.12502
rthumb -8.01368 -39.2978
lclavicle 6.96243e-014 1.51076e-014
lhumerus 2.07038 -30.8516 93.4895
lradius 84.6739
lwrist 19.1058
lhand -26.4769 0.419199
lfingers 7.12502
lthumb 0.0851522 30.3989
rfemur -38.3216 -3.54095 19.8591
rtibia 61.1929
rfoot -33.5733 7.01546
rtoes -13.18
lfemur -12.0631 -2.74399 -8.46248
ltibia 69.9729
lfoot -28.213 -4.31548
ltoes -19.2843
399
root -1.68575 18.6404 25.1124 10.0303 41.0398 2.89443
lowerback 10.5709 -2.88212 -2.69563
upperback -1.20005 -4.2383 -0.720895
thorax -7.0576 -1.97774 1.4475
lowerneck -20.0376 0.123606 1.11653
upperneck 24.4279 1.86205 -6.86524
head 11.3585 0.0974276 -2.41853
rclavicle -8.05078e-015 7.55382e-015
rhumerus -17.2164 9.69729 -84.5158
rradius 43.522
rwrist -15.5454
rhand -34.9743 -9.45185
rfingers 7.12502
rthumb -8.11994 -39.2758
lclavicle -8.05078e-015 7.55382e-015
lhumerus 1.12918 -31.2992 94.2892
lradius 84.1657
lwrist 19.1633
lhand -26.0041 0.491406
lfingers 7.12502
lthumb 0.541833 30.4705
rfemur -37.2614 -3.7724 20.2482
rtibia 60.2725
rfoot -33.9871 6.41992
rtoes -13.1692
lfemur -13.0992 -1.69985 -8.87134
ltibia 70.228
lfoot -29.4488 -4.13751
ltoes -19.3898
400
root -1.7236 18.6905 25.4455 9.61787 42.0695 2.67604
lowerback 10.5489 -2.92562 -2.69493
upperback -1.1888 -4.29345 -0.698267
thorax -7.02916 -2.005 1.47781
lowerneck -19.982 -0.0916379 0.943384
upperneck 24.6978 1.61923 -6.8034
head 11.4363 -0.021924 -2.40954
rclavicle -1.47598e-014 1.55052e-014
rhumerus -17.9399 9.90832 -84.5309
rradius 44.3054
rwrist -16.0496
rhand -35.0956 -9.42062
rfingers 7.12502
rthumb -8.23708 -39.24
lclavicle -1.47598e-014 1.55052e-014
lhumerus 0.120205 -31.6912 95.091
lradius 83.6208
lwrist 19.2104
lhand -25.511 0.551354
lfingers 7.12502
lthumb 1.01799 30.5287
rfemur -36.2114 -3.97792 20.6866
rtibia 59.3728
rfoot -34.3907 5.83773
rtoes -13.1471
lfemur -13.947 -0.646243 -9.24188
ltibia 70.1849
lfoot -30.5678 -3.97311
ltoes -19.4288
